<svg viewBox="0 0 330 200" xmlns="http://www.w3.org/2000/svg"><g><g><g><g><g><line x1="37.375" y1="177" x2="32.375" y2="177" style="visibility: inherit;" fill="rgb(0, 0, 0)" stroke="rgb(204, 204, 204)" stroke-width="1px"></line><line x1="37.375" y1="162.25" x2="32.375" y2="162.25" style="visibility: inherit;" fill="rgb(0, 0, 0)" stroke="rgb(204, 204, 204)" stroke-width="1px"></line><line x1="37.375" y1="147.5" x2="32.375" y2="147.5" style="visibility: inherit;" fill="rgb(0, 0, 0)" stroke="rgb(204, 204, 204)" stroke-width="1px"></line><line x1="37.375" y1="132.75" x2="32.375" y2="132.75" style="visibility: inherit;" fill="rgb(0, 0, 0)" stroke="rgb(204, 204, 204)" stroke-width="1px"></line><line x1="37.375" y1="118" x2="32.375" y2="118" style="visibility: inherit;" fill="rgb(0, 0, 0)" stroke="rgb(204, 204, 204)" stroke-width="1px"></line><line x1="37.375" y1="103.24999999999999" x2="32.375" y2="103.24999999999999" style="visibility: inherit;" fill="rgb(0, 0, 0)" stroke="rgb(204, 204, 204)" stroke-width="1px"></line><line x1="37.375" y1="88.5" x2="32.375" y2="88.5" style="visibility: inherit;" fill="rgb(0, 0, 0)" stroke="rgb(204, 204, 204)" stroke-width="1px"></line><line x1="37.375" y1="73.75" x2="32.375" y2="73.75" style="visibility: inherit;" fill="rgb(0, 0, 0)" stroke="rgb(204, 204, 204)" stroke-width="1px"></line><line x1="37.375" y1="58.999999999999986" x2="32.375" y2="58.999999999999986" style="visibility: inherit;" fill="rgb(0, 0, 0)" stroke="rgb(204, 204, 204)" stroke-width="1px"></line><line x1="37.375" y1="44.25" x2="32.375" y2="44.25" style="visibility: inherit;" fill="rgb(0, 0, 0)" stroke="rgb(204, 204, 204)" stroke-width="1px"></line><line x1="37.375" y1="29.499999999999993" x2="32.375" y2="29.499999999999993" style="visibility: inherit;" fill="rgb(0, 0, 0)" stroke="rgb(204, 204, 204)" stroke-width="1px"></line><line x1="37.375" y1="14.749999999999988" x2="32.375" y2="14.749999999999988" style="visibility: inherit;" fill="rgb(0, 0, 0)" stroke="rgb(204, 204, 204)" stroke-width="1px"></line><line x1="37.375" y1="0" x2="32.375" y2="0" style="visibility: inherit;" fill="rgb(0, 0, 0)" stroke="rgb(204, 204, 204)" stroke-width="1px"></line></g><g transform="translate(27.375, 0)"><text x="0" y="177" dx="0em" dy="0.3em" style="text-anchor: end; visibility: hidden; font-family: Roboto, sans-serif; font-size: 12px; font-weight: 200;" fill="rgb(50, 49, 63)" stroke="none" stroke-width="1px">0</text><text x="0" y="162.25" dx="0em" dy="0.3em" style="text-anchor: end; visibility: inherit; font-family: Roboto, sans-serif; font-size: 12px; font-weight: 200;" fill="rgb(50, 49, 63)" stroke="none" stroke-width="1px">0.2</text><text x="0" y="147.5" dx="0em" dy="0.3em" style="text-anchor: end; visibility: hidden; font-family: Roboto, sans-serif; font-size: 12px; font-weight: 200;" fill="rgb(50, 49, 63)" stroke="none" stroke-width="1px">0.4</text><text x="0" y="132.75" dx="0em" dy="0.3em" style="text-anchor: end; visibility: inherit; font-family: Roboto, sans-serif; font-size: 12px; font-weight: 200;" fill="rgb(50, 49, 63)" stroke="none" stroke-width="1px">0.6</text><text x="0" y="118" dx="0em" dy="0.3em" style="text-anchor: end; visibility: hidden; font-family: Roboto, sans-serif; font-size: 12px; font-weight: 200;" fill="rgb(50, 49, 63)" stroke="none" stroke-width="1px">0.8</text><text x="0" y="103.24999999999999" dx="0em" dy="0.3em" style="text-anchor: end; visibility: inherit; font-family: Roboto, sans-serif; font-size: 12px; font-weight: 200;" fill="rgb(50, 49, 63)" stroke="none" stroke-width="1px">1</text><text x="0" y="88.5" dx="0em" dy="0.3em" style="text-anchor: end; visibility: hidden; font-family: Roboto, sans-serif; font-size: 12px; font-weight: 200;" fill="rgb(50, 49, 63)" stroke="none" stroke-width="1px">1.2</text><text x="0" y="73.75" dx="0em" dy="0.3em" style="text-anchor: end; visibility: inherit; font-family: Roboto, sans-serif; font-size: 12px; font-weight: 200;" fill="rgb(50, 49, 63)" stroke="none" stroke-width="1px">1.4</text><text x="0" y="58.999999999999986" dx="0em" dy="0.3em" style="text-anchor: end; visibility: hidden; font-family: Roboto, sans-serif; font-size: 12px; font-weight: 200;" fill="rgb(50, 49, 63)" stroke="none" stroke-width="1px">1.6</text><text x="0" y="44.25" dx="0em" dy="0.3em" style="text-anchor: end; visibility: inherit; font-family: Roboto, sans-serif; font-size: 12px; font-weight: 200;" fill="rgb(50, 49, 63)" stroke="none" stroke-width="1px">1.8</text><text x="0" y="29.499999999999993" dx="0em" dy="0.3em" style="text-anchor: end; visibility: hidden; font-family: Roboto, sans-serif; font-size: 12px; font-weight: 200;" fill="rgb(50, 49, 63)" stroke="none" stroke-width="1px">2</text><text x="0" y="14.749999999999988" dx="0em" dy="0.3em" style="text-anchor: end; visibility: inherit; font-family: Roboto, sans-serif; font-size: 12px; font-weight: 200;" fill="rgb(50, 49, 63)" stroke="none" stroke-width="1px">2.2</text><text x="0" y="0" dx="0em" dy="0.3em" style="text-anchor: end; visibility: hidden; font-family: Roboto, sans-serif; font-size: 12px; font-weight: 200;" fill="rgb(50, 49, 63)" stroke="none" stroke-width="1px">2.4</text></g><line x1="37.375" y1="0" x2="37.375" y2="177" fill="rgb(0, 0, 0)" stroke="rgb(204, 204, 204)" stroke-width="1px"></line></g></g><g transform="translate(37, 0)" clip-path="url(#clip_0)"><clipPath id="clip_0"><rect width="292" height="176"></rect></clipPath><g><g><g><line x1="0" y1="0" x2="0" y2="177" fill="rgb(0, 0, 0)" stroke="rgb(60, 60, 60)" stroke-width="1px" opacity="0.25"></line><line x1="26.602272727272727" y1="0" x2="26.602272727272727" y2="177" fill="rgb(0, 0, 0)" stroke="rgb(60, 60, 60)" stroke-width="1px" opacity="0.25"></line><line x1="53.20454545454545" y1="0" x2="53.20454545454545" y2="177" fill="rgb(0, 0, 0)" stroke="rgb(60, 60, 60)" stroke-width="1px" opacity="0.25"></line><line x1="79.80681818181817" y1="0" x2="79.80681818181817" y2="177" fill="rgb(0, 0, 0)" stroke="rgb(60, 60, 60)" stroke-width="1px" opacity="0.25"></line><line x1="106.4090909090909" y1="0" x2="106.4090909090909" y2="177" fill="rgb(0, 0, 0)" stroke="rgb(60, 60, 60)" stroke-width="1px" opacity="0.25"></line><line x1="133.01136363636363" y1="0" x2="133.01136363636363" y2="177" fill="rgb(0, 0, 0)" stroke="rgb(60, 60, 60)" stroke-width="1px" opacity="0.25"></line><line x1="159.61363636363635" y1="0" x2="159.61363636363635" y2="177" fill="rgb(0, 0, 0)" stroke="rgb(60, 60, 60)" stroke-width="1px" opacity="0.25"></line><line x1="186.2159090909091" y1="0" x2="186.2159090909091" y2="177" fill="rgb(0, 0, 0)" stroke="rgb(60, 60, 60)" stroke-width="1px" opacity="0.25"></line><line x1="212.8181818181818" y1="0" x2="212.8181818181818" y2="177" fill="rgb(0, 0, 0)" stroke="rgb(60, 60, 60)" stroke-width="1px" opacity="0.25"></line><line x1="239.42045454545456" y1="0" x2="239.42045454545456" y2="177" fill="rgb(0, 0, 0)" stroke="rgb(60, 60, 60)" stroke-width="1px" opacity="0.25"></line><line x1="266.02272727272725" y1="0" x2="266.02272727272725" y2="177" fill="rgb(0, 0, 0)" stroke="rgb(60, 60, 60)" stroke-width="1px" opacity="0.25"></line><line x1="292.625" y1="0" x2="292.625" y2="177" fill="rgb(0, 0, 0)" stroke="rgb(60, 60, 60)" stroke-width="1px" opacity="0.25"></line></g><g><line x1="0" y1="177" x2="292.625" y2="177" fill="rgb(0, 0, 0)" stroke="rgb(60, 60, 60)" stroke-width="1px" opacity="0.25"></line><line x1="0" y1="162.25" x2="292.625" y2="162.25" fill="rgb(0, 0, 0)" stroke="rgb(60, 60, 60)" stroke-width="1px" opacity="0.25"></line><line x1="0" y1="147.5" x2="292.625" y2="147.5" fill="rgb(0, 0, 0)" stroke="rgb(60, 60, 60)" stroke-width="1px" opacity="0.25"></line><line x1="0" y1="132.75" x2="292.625" y2="132.75" fill="rgb(0, 0, 0)" stroke="rgb(60, 60, 60)" stroke-width="1px" opacity="0.25"></line><line x1="0" y1="118" x2="292.625" y2="118" fill="rgb(0, 0, 0)" stroke="rgb(60, 60, 60)" stroke-width="1px" opacity="0.25"></line><line x1="0" y1="103.24999999999999" x2="292.625" y2="103.24999999999999" fill="rgb(0, 0, 0)" stroke="rgb(60, 60, 60)" stroke-width="1px" opacity="0.25"></line><line x1="0" y1="88.5" x2="292.625" y2="88.5" fill="rgb(0, 0, 0)" stroke="rgb(60, 60, 60)" stroke-width="1px" opacity="0.25"></line><line x1="0" y1="73.75" x2="292.625" y2="73.75" fill="rgb(0, 0, 0)" stroke="rgb(60, 60, 60)" stroke-width="1px" opacity="0.25"></line><line x1="0" y1="58.999999999999986" x2="292.625" y2="58.999999999999986" fill="rgb(0, 0, 0)" stroke="rgb(60, 60, 60)" stroke-width="1px" opacity="0.25"></line><line x1="0" y1="44.25" x2="292.625" y2="44.25" fill="rgb(0, 0, 0)" stroke="rgb(60, 60, 60)" stroke-width="1px" opacity="0.25"></line><line x1="0" y1="29.499999999999993" x2="292.625" y2="29.499999999999993" fill="rgb(0, 0, 0)" stroke="rgb(60, 60, 60)" stroke-width="1px" opacity="0.25"></line><line x1="0" y1="14.749999999999988" x2="292.625" y2="14.749999999999988" fill="rgb(0, 0, 0)" stroke="rgb(60, 60, 60)" stroke-width="1px" opacity="0.25"></line><line x1="0" y1="0" x2="292.625" y2="0" fill="rgb(0, 0, 0)" stroke="rgb(60, 60, 60)" stroke-width="1px" opacity="0.25"></line></g></g></g><g><g><line x1="0" y1="177" x2="292.625" y2="177" fill="rgb(0, 0, 0)" stroke="rgb(153, 153, 153)" stroke-width="1.5px"></line></g></g><g><g><line x1="26.602272727272727" y1="0" x2="26.602272727272727" y2="177" fill="rgb(0, 0, 0)" stroke="rgb(153, 153, 153)" stroke-width="1.5px"></line></g></g><g><g><g><g><g><path stroke="rgb(255, 112, 67)" stroke-width="2px" d="M26.602272727272727,0.5058313608169556L26.868295454545454,-0.2580820721613353L27.13431818181818,1.1964219379552654L27.40034090909091,4.736094287663836L27.666363636363634,6.438565746205936L27.932386363636365,5.1964700830849555L28.198409090909088,4.29630474144985L28.46443181818182,6.547455514766428L28.730454545454542,7.596693186273157L28.996477272727272,9.160449911875203L29.262500000000003,9.538156930776466L29.528522727272726,8.696180808040616L29.794545454545457,9.598026559634201L30.06056818181818,9.691981696884119L30.32659090909091,9.860239810797806L30.592613636363634,10.287463977027626L30.858636363636364,11.127865867213188L31.12465909090909,10.948828986111513L31.390681818181818,11.444816987753796L31.656704545454545,11.495831489186536L31.922727272727272,11.961606029518935L32.18875,12.192777764910721L32.454772727272726,12.539851363248236L32.72079545454545,12.89691614989053L32.98681818181818,13.405185259006494L33.25284090909091,13.62978326174209L33.51886363636363,13.793752567960434L33.78488636363636,13.942573925055951L34.050909090909094,14.416218583051249L34.31693181818182,14.7016425819215L34.58295454545455,14.816386151080106L34.848977272727275,15.248411244426556L35.115,15.629276994409318L35.38102272727273,15.931955798680919L35.647045454545456,16.385114267177695L35.91306818181818,16.560789367761643L36.17909090909091,17.029174415484476L36.44511363636364,17.188555725280175L36.71113636363636,17.564680192796374L36.97715909090909,17.87546805939338L37.24318181818182,18.07033644197832L37.509204545454544,18.644876307443873L37.77522727272727,18.956026189998994L38.04125,19.349019057170374L38.30727272727273,19.768892417570406L38.57329545454545,19.943240867666987L38.83931818181818,20.520120669389122L39.105340909090906,20.982807450774878L39.37136363636364,21.64857645865997L39.63738636363637,21.92917492029308L39.903409090909086,22.22307760291275L40.16943181818182,22.796236307696624L40.43545454545455,23.227363919640222L40.701477272727274,23.586094471969165L40.9675,24.22554243931446L41.23352272727273,24.620118508012556L41.499545454545455,25.089082249874494L41.76556818181818,25.614786504512924L42.03159090909091,26.083268389011664L42.297613636363636,26.708973515235826L42.56363636363636,27.282653076345248L42.82965909090909,27.85566496537101L43.095681818181816,28.450766409834245L43.36170454545455,29.09368320029559L43.62772727272727,29.753358424208837L43.89375,30.309883785237446L44.159772727272724,30.922337334688777L44.42579545454546,31.483709637394885L44.691818181818185,32.33126381703481L44.957840909090905,32.97706738736644L45.22386363636363,33.77255587411442L45.489886363636366,34.45656881854693L45.75590909090909,35.26386073178474L46.02193181818182,36.00643696235707L46.28795454545455,36.680897259751276L46.55397727272727,37.67447435263874L46.82,38.440834885494475L47.08602272727273,38.98619709723775L47.352045454545454,39.89856573013707L47.61806818181818,40.67049332515896L47.88409090909091,41.426481297417645L48.150113636363635,42.26579821624875L48.41613636363637,43.084731863684354L48.68215909090909,43.94807127982371L48.948181818181816,44.75655264320015L49.21420454545454,45.661892994212124L49.48022727272728,46.520606941023594L49.74625,47.33224922812424L50.01227272727272,48.27470595633099L50.27829545454545,49.1318810630037L50.544318181818184,50.01346002671356L50.81034090909091,50.8313799996587L51.07636363636364,51.75824691128108L51.34238636363636,52.78247050528003L51.60840909090909,53.473845516407614L51.87443181818182,54.38920014988275L52.140454545454546,55.237147203046476L52.40647727272727,56.15179383508395L52.6725,56.98116228824139L52.938522727272726,57.87277950527195L53.20454545454545,58.69771632613241L53.47056818181819,59.54109166807761L53.73659090909091,60.43865444831678L54.002613636363634,61.1715520449254L54.26863636363636,62.08156997859602L54.534659090909095,62.944708851561465L54.80068181818182,63.73146643026743L55.06670454545454,64.56094733800843L55.33272727272727,65.41748873435684L55.59875,66.21315423751805L55.86477272727273,66.96849776194917L56.13079545454545,67.84116051968644L56.396818181818176,68.61344165189546L56.66284090909091,69.30277466037646L56.92886363636364,70.05041826080951L57.194886363636364,70.8010121104894L57.460909090909084,71.60392255275939L57.72693181818182,72.36658912682343L57.992954545454545,73.13457368232324L58.25897727272727,73.83037667644186L58.525000000000006,74.5696645798738L58.791022727272725,75.30008976620653L59.05704545454545,75.99434447600837L59.32306818181818,76.73954949649695L59.58909090909091,77.41379135957573L59.85511363636364,78.1056499750676L60.12113636363636,78.7844735737542L60.38715909090909,79.46784099633375L60.65318181818182,80.15747349117767L60.91920454545455,80.81271370594355L61.18522727272727,81.45354123376724L61.451249999999995,82.15905740438446L61.71727272727273,82.79960249566514L61.983295454545456,83.49699219949879L62.24931818181818,84.08896580154624L62.5153409090909,84.72257543091409L62.781363636363636,85.3320692031239L63.04738636363636,85.97222560108698L63.31340909090909,86.56316445439803L63.579431818181824,87.17812245596656L63.845454545454544,87.80122471781378L64.11147727272727,88.41791635119571L64.3775,89.01109180255074L64.64352272727272,89.57074795431909L64.90954545454545,90.15455783979458L65.17556818181818,90.72390260184945L65.4415909090909,91.29124909944329L65.70761363636363,91.86946453120301L65.97363636363636,92.39893077722157L66.23965909090909,92.96152355311835L66.50568181818181,93.50882650484759L66.77170454545454,94.05747250149294L67.03772727272727,94.58259513079766L67.30375000000001,95.10505317836501L67.56977272727272,95.62559126857447L67.83579545454545,96.15471018943444L68.10181818181819,96.6618597684916L68.36784090909092,97.1737421042132L68.63386363636364,97.67779750577978L68.89988636363636,98.16239353183903L69.1659090909091,98.66685219145651L69.43193181818182,99.15580311674685L69.69795454545455,99.64088111043289L69.96397727272728,100.12120430504226L70.23,100.58711009952489L70.49602272727273,101.05894240509849L70.76204545454546,101.52438386443072L71.02806818181818,101.9776115139448L71.29409090909091,102.42379439964542L71.56011363636364,102.88307494099259L71.82613636363637,103.32502038189548L72.09215909090909,103.77069573066058L72.35818181818182,104.20386166321337L72.62420454545455,104.63194029258399L72.89022727272727,105.06046353846254L73.15625,105.47966234610158L73.42227272727273,105.90053730175032L73.68829545454545,106.31574630782947L73.95431818181818,106.7206825672662L74.22034090909092,107.13252557548029L74.48636363636363,107.53732922429235L74.75238636363636,107.92909031385457L75.01840909090909,108.32893053519005L75.28443181818182,108.71809007737463L75.55045454545454,109.10613903170855L75.81647727272727,109.48866039215977L76.0825,109.87115674013069L76.34852272727274,110.24617954322224L76.61454545454546,110.61579047958176L76.88056818181819,110.98392090789837L77.1465909090909,111.34908023800229L77.41261363636363,111.7118478865025L77.67863636363636,112.07461840535866L77.94465909090908,112.43191887247706L78.21068181818181,112.77354828335824L78.47670454545455,113.11904569229786L78.74272727272728,113.46803503622951L79.00875,113.80749309060333L79.27477272727273,114.14495033557282L79.54079545454545,114.47981115272114L79.80681818181817,114.81281174788937L80.0728409090909,115.14289655358779L80.33886363636364,115.46780446915677L80.60488636363637,115.79046527684014L80.8709090909091,116.11052453520492L81.13693181818182,116.4295674131373L81.40295454545455,116.74157070982339L81.66897727272728,117.05470958891814L81.935,117.36020300512648L82.20102272727271,117.66743698844401L82.46704545454546,117.96721419400728L82.73306818181818,118.27052852520539L82.99909090909091,118.56839207851556L83.26511363636364,118.86373396453416L83.53113636363636,119.1564912678077L83.79715909090909,119.44572960592747L84.06318181818182,119.73315859412264L84.32920454545456,120.01867974530394L84.59522727272727,120.29989302337178L84.86125,120.58056428391629L85.12727272727273,120.8565416456672L85.39329545454545,121.1323158278191L85.65931818181818,121.40506542138431L85.9253409090909,121.67459612087957L86.19136363636363,121.94359609785572L86.45738636363637,122.20924064622207L86.7234090909091,122.47034841428686L86.98943181818183,122.73461577724972L87.25545454545454,122.99483777785915L87.52147727272727,123.2491677469128L87.7875,123.50547035295678L88.05352272727272,123.75876488024971L88.31954545454545,124.009470842909L88.58556818181819,124.25681965463323L88.85159090909092,124.5033747638107L89.11761363636364,124.74813237501061L89.38363636363637,124.9899610310369L89.64965909090908,125.23010456017688L89.91568181818181,125.46840315413245L90.18170454545454,125.70527876702342L90.44772727272726,125.94089224228914L90.71375,126.1735741786601L90.97977272727273,126.40328022124514L91.24579545454546,126.6325271465097L91.51181818181819,126.85896435165698L91.77784090909091,127.08536985884719L92.04386363636364,127.30959445210054L92.30988636363635,127.53093760831258L92.5759090909091,127.75114691143496L92.84193181818182,127.96973641527995L93.10795454545455,128.18594317513407L93.37397727272727,128.40138914114127L93.64,128.61473162669265L93.90602272727273,128.82546288143314L94.17204545454545,129.03697182638825L94.4380681818182,129.24469379498922L94.70409090909091,129.45188090473343L94.97011363636364,129.65799328469453L95.23613636363636,129.8619911430161L95.50215909090909,130.0638601189016L95.76818181818182,130.26513128756343L96.03420454545454,130.46325798689801L96.30022727272727,130.6626634069202L96.56625000000001,130.85863075653904L96.83227272727274,131.05366209194747L97.09829545454546,131.24703242540784L97.36431818181818,131.439177582902L97.6303409090909,131.6298195894241L97.89636363636363,131.81812511675952L98.16238636363636,132.00724583636614L98.42840909090908,132.19471013031358L98.69443181818183,132.3797059529955L98.96045454545455,132.56267027970532L99.22647727272728,132.74536925665913L99.4925,132.92730545533811L99.75852272727272,133.10622763543083L100.02454545454545,133.2853420504496L100.29056818181817,133.4625556652849L100.5565909090909,133.6384357778459L100.82261363636364,133.81396857416294L101.08863636363637,133.986677829926L101.3546590909091,134.15966082036775L101.62068181818182,134.3315390199416L101.88670454545455,134.50084231707768L102.15272727272728,134.6700169406709L102.41874999999999,134.83829714064524L102.68477272727272,135.0044015846021L102.95079545454546,135.16985694408686L103.21681818181818,135.33428559159398L103.48284090909091,135.49750368561197L103.74886363636364,135.65948513682795L104.01488636363636,135.82077896219053L104.28090909090909,135.9798780993345L104.54693181818183,136.13943438746364L104.81295454545455,136.29630377942482L105.07897727272727,136.45337362005483L105.345,136.60977852199784L105.61102272727273,136.76410396092646L105.87704545454545,136.9179530005871L106.14306818181818,137.07073398634782L106.4090909090909,137.22197385178347L106.67511363636365,137.37290031781595L106.94113636363637,137.52267891518437L107.2071590909091,137.6705253406597L107.47318181818181,137.81842861895416L107.73920454545454,137.96597921418993L108.00522727272727,138.1120376459892L108.27125,138.2563503785477L108.53727272727272,138.40068528903126L108.80329545454546,138.5437639642973L109.06931818181819,138.68611679384557L109.33534090909092,138.82692899977567L109.60136363636364,138.96716319059766L109.86738636363636,139.10650892629198L110.13340909090908,139.24525178166024L110.39943181818181,139.38304964212736L110.66545454545454,139.5193902801105L110.93147727272728,139.6558144147763L111.1975,139.79120671774723L111.46352272727273,139.92569833795002L111.72954545454546,140.05858352152586L111.99556818181819,140.1914693535194L112.2615909090909,140.32325136064517L112.52761363636363,140.4539735042428L112.79363636363635,140.58435098867378L113.0596590909091,140.71326180569903L113.32568181818182,140.84229044230304L113.59170454545455,140.97003178483442L113.85772727272727,141.09690633122318L114.12375,141.22360606267782L114.38977272727273,141.34914337801902L114.65579545454545,141.47363758495104L114.92181818181817,141.59810071279585L115.18784090909091,141.72167403127096L115.45386363636364,141.8439701240502L115.71988636363636,141.96586948683688L115.98590909090909,142.08742258840607L116.25193181818182,142.20776220107507L116.51795454545454,142.32706018109636L116.78397727272728,142.44641014882492L117.05000000000001,142.564598716346L117.31602272727272,142.6819974961556L117.58204545454545,142.79858273119325L117.84806818181818,142.91513944787746L118.1140909090909,143.0308569938802L118.38011363636363,143.14592895589942L118.64613636363636,143.2599023370212L118.9121590909091,143.37374082552668L119.17818181818183,143.48704038276685L119.44420454545455,143.59902058841365L119.71022727272728,143.71074974242444L119.97625,143.821981914286L120.24227272727272,143.93219781651393L120.50829545454545,144.0420703225734L120.77431818181817,144.15117480553567L121.04034090909092,144.25972325170122L121.30636363636364,144.36783589550268L121.57238636363637,144.47532704103313L121.8384090909091,144.5822645372464L122.10443181818182,144.68810764756833L122.37045454545454,144.7935255692499L122.63647727272726,144.89885347173023L122.90249999999999,145.0031271576598L123.16852272727273,145.10701214484322L123.43454545454546,145.21046257689125L123.70056818181818,145.3129820395857L123.96659090909091,145.4149796675025L124.23261363636364,145.5165657330925L124.49863636363636,145.61790106192558L124.76465909090909,145.71814835890376L125.0306818181818,145.81824373022252L125.29670454545455,145.9178678716762L125.56272727272727,146.01686374614178L125.82875,146.11537876038577L126.09477272727273,146.21298011305944L126.36079545454545,146.31027033210881L126.62681818181818,146.4072420171692L126.8928409090909,146.50338845695813L127.15886363636365,146.5992559155668L127.42488636363636,146.69443475129782L127.69090909090909,146.7892902655966L127.95693181818181,146.88358196907816L128.22295454545454,146.97775409305723L128.48897727272728,147.07064084405303L128.755,147.1635370100566L129.02102272727274,147.25583635692522L129.28704545454545,147.34769780525187L129.5530681818182,147.439011056925L129.8190909090909,147.5300339520324L130.08511363636362,147.62047978115532L130.35113636363636,147.7104182312236L130.6171590909091,147.80014092724727L130.8831818181818,147.88907150059566L131.14920454545455,147.9774523085222L131.41522727272726,148.06580794125668L131.68125,148.1536245791799L131.94727272727272,148.24068481041252L132.21329545454546,148.32763006105017L132.47931818181817,148.41421254607627L132.7453409090909,148.5002066672176L133.01136363636363,148.58564390196747L133.27738636363637,148.67088156996905L133.54340909090908,148.75556816014603L133.80943181818182,148.8398687660868L134.07545454545453,148.92372908663515L134.34147727272727,149.00703199581093L134.60750000000002,149.09026531396802L134.87352272727273,149.17283016637072L135.13954545454544,149.2549153091692L135.40556818181818,149.33672543051432L135.6715909090909,149.41832535469598L135.93761363636364,149.49957798904637L136.20363636363638,149.58014129344016L136.4696590909091,149.66018088476264L136.73568181818183,149.74004038669403L137.00170454545454,149.81949900859482L137.26772727272729,149.89857905509538L137.53375,149.97723203424286L137.7997727272727,150.0554437081769L138.06579545454545,150.13359183691927L138.3318181818182,150.21109654330746L138.5978409090909,150.28840853939985L138.86386363636365,150.36521129746208L139.12988636363636,150.4417497220073L139.3959090909091,150.51788376839082L139.6619318181818,150.5935364386134L139.92795454545455,150.6690271533949L140.19397727272727,150.7440597068442L140.46,150.81865160601683L140.72602272727272,150.8930323150426L140.99204545454546,150.96690208479734L141.25806818181817,151.0406591457573L141.52409090909092,151.11401881298573L141.79011363636363,151.18709599002568L142.05613636363637,151.25952197176537L142.3221590909091,151.33199650340308L142.58818181818182,151.40378443763797L142.85420454545454,151.4754064817728L143.12022727272728,151.54687953600597L143.38625,151.617727205118L143.65227272727273,151.68832884252453L143.91829545454544,151.75869208925656L144.18431818181818,151.82861228389896L144.45034090909093,151.89837326657604L144.71636363636364,151.96781324478164L144.98238636363638,152.0368622636222L145.2484090909091,152.10555478919417L145.5144318181818,152.1738358258964L145.78045454545455,152.2420640113987L146.04647727272726,152.30998112993248L146.3125,152.3775025720368L146.5785227272727,152.44465901785878L146.84454545454545,152.51168109018923L147.11056818181817,152.57842595612135L147.3765909090909,152.64474829208137L147.64261363636362,152.71066087175808L147.90863636363636,152.77654724984052L148.17465909090907,152.8420013363548L148.44068181818184,152.90700781260847L148.70670454545456,152.97192442738066L148.97272727272727,153.03646627251445L149.23875,153.10082026430706L149.50477272727272,153.16484048833166L149.77079545454546,153.2285662229232L150.03681818181818,153.29211316621743L150.30284090909092,153.35543701020447L150.56886363636363,153.4182488849782L150.83488636363637,153.48092269961555L151.10090909090908,153.5433578150978L151.3669318181818,153.60543622106758L151.63295454545454,153.6672973341838L151.89897727272725,153.7288430663373L152.165,153.7902156942807L152.4310227272727,153.85128955791484L152.69704545454547,153.91206334583106L152.9630681818182,153.97271875752617L153.22909090909093,154.03292754785943L153.49511363636364,154.09307696611722L153.76113636363638,154.15287323977833L154.0271590909091,154.21225642503174L154.2931818181818,154.27157376753954L154.55920454545455,154.33052704701623L154.82522727272726,154.38937451544024L155.09125,154.44791104455075L155.35727272727271,154.50616306476306L155.62329545454546,154.5642801511198L155.88931818181817,154.62204949552523L156.1553409090909,154.67960142400145L156.42136363636362,154.73701699225592L156.68738636363634,154.79401019319107L156.9534090909091,154.85097164293416L157.21943181818182,154.90760688713007L157.48545454545456,154.96406650938545L157.75147727272727,155.02022574635086L158.0175,155.07609328626194L158.28352272727273,155.13174539457637L158.54954545454547,155.18730023472165L158.81556818181818,155.24252971089172L159.0815909090909,155.2975957040628L159.34761363636363,155.35236187770565L159.61363636363635,155.40695109432784L159.8796590909091,155.4613201675106L160.1456818181818,155.51545066683298L160.41170454545457,155.5693879784604L160.67772727272728,155.62305648160026L160.94375000000002,155.67658756653006L161.20977272727274,155.72987995316245L161.47579545454545,155.78301591979684L161.7418181818182,155.83585004252618L162.0078409090909,155.88844523590745L162.27386363636364,155.94082511710414L162.53988636363636,155.99307299829644L162.8059090909091,156.04514782702728L163.0719318181818,156.0970078776458L163.33795454545455,156.14863782045174L163.60397727272726,156.19997450759797L163.87,156.25119615415727L164.13602272727272,156.30225112664112L164.40204545454543,156.352987476165L164.6680681818182,156.40361326237942L164.9340909090909,156.45403455357396L165.20011363636365,156.50422485415078L165.46613636363637,156.5542107764373L165.7321590909091,156.60414510075887L165.99818181818182,156.65369465734094L166.26420454545456,156.7031411421934L166.53022727272727,156.7524394897751L166.79625,156.80144718754812L167.06227272727273,156.85025902701707L167.32829545454544,156.89896457995457L167.59431818181818,156.94752017550644L167.8603409090909,156.99587222296094L168.12636363636364,157.0440393015336L168.39238636363635,157.09189919130407L168.65840909090912,157.13979620381667L168.92443181818183,157.18733126057606L169.19045454545454,157.2346366899065L169.45647727272728,157.2818586324355L169.7225,157.32888260351004L169.98852272727274,157.37578523317947L170.25454545454545,157.4224688140587L170.5205681818182,157.46903149413134L170.7865909090909,157.5153347649563L171.05261363636365,157.5614982049932L171.31863636363636,157.60756017418262L171.58465909090907,157.65331539298788L171.8506818181818,157.69895518387685L172.11670454545452,157.74448563512394L172.38272727272727,157.7897667863051L172.64874999999998,157.83479491171255L172.91477272727275,157.87987896616545L173.18079545454546,157.92471929206354L173.4468181818182,157.9693127141989L173.71284090909091,158.01374196453816L173.97886363636366,158.05820998102166L174.24488636363637,158.10233822445562L174.51090909090908,158.1463629582411L174.77693181818182,158.19021264471792L175.04295454545453,158.23386875453738L175.30897727272728,158.27738139898756L175.575,158.32078108981204L175.84102272727273,158.36391450414027L176.10704545454544,158.40700296924393L176.37306818181818,158.4499328284466L176.6390909090909,158.49270584277312L176.9051136363636,158.5352566692276L177.17113636363638,158.57768369827565L177.4371590909091,158.62003457648302L177.70318181818183,158.66209643689862L177.96920454545455,158.70405988424992L178.2352272727273,158.74591775967755L178.50125,158.78761146193057L178.76727272727274,158.82907438035966L179.03329545454545,158.87047138348373L179.29931818181817,158.91175456327068L179.5653409090909,158.95275778696302L179.83136363636362,158.99372840287108L180.09738636363636,159.0345017619132L180.36340909090907,159.07514605228434L180.6294318181818,159.11565833697622L180.89545454545453,159.1560620960616L181.1614772727273,159.19623771353048L181.4275,159.23636170118343L181.69352272727272,159.27631710539194L181.95954545454546,159.31605707171266L182.22556818181818,159.3557666039069L182.49159090909092,159.3953168720767L182.75761363636363,159.43462312192634L183.02363636363637,159.4738857278897L183.28965909090908,159.5129415337522L183.55568181818182,159.55198545373904L183.82170454545454,159.59090949327205L184.08772727272728,159.62956282657652L184.35375,159.66811728971106L184.6197727272727,159.7066544969771L184.88579545454547,159.74491411924876L185.1518181818182,159.78305307358886L185.41784090909093,159.82104105510567L185.68386363636364,159.85900420907225L185.94988636363638,159.8968254002109L186.2159090909091,159.93443258231116L186.48193181818183,159.9720146239597L186.74795454545455,160.00942996230629L187.01397727272726,160.0467384978706L187.28,160.08391261762466L187.5460227272727,160.1208839828523L187.81204545454545,160.15777884553142L188.07806818181817,160.19459986221224L188.3440909090909,160.2312168917848L188.61011363636362,160.26773590454883L188.8761363636364,160.30417722069265L189.1421590909091,160.34044505901036L189.40818181818182,160.3765721078461L189.67420454545456,160.41263365191503L189.94022727272727,160.44859077970528L190.20625,160.4843981735418L190.47227272727272,160.52002511691654L190.73829545454547,160.5556678529336L191.00431818181818,160.59108800850112L191.27034090909092,160.62647935255603L191.53636363636363,160.66166116328122L191.80238636363634,160.69675475527762L192.06840909090909,160.73175786014824L192.3344318181818,160.76661364409526L192.60045454545454,160.80125777074167L192.86647727272725,160.8359557346894L193.13250000000002,160.8705501185645L193.39852272727273,160.90497113194533L193.66454545454548,160.93924048551924L193.9305681818182,160.9734640815325L194.19659090909093,161.00753204581108L194.46261363636364,161.04148286434042L194.72863636363635,161.0753764604621L194.9946590909091,161.10908853874625L195.2606818181818,161.1427724445428L195.52670454545455,161.17628933947637L195.79272727272726,161.20969863135187L196.05875,161.24303083228287L196.32477272727272,161.27623170381955L196.59079545454546,161.3093576998477L196.85681818181817,161.34236897201592L197.12284090909088,161.37520566072266L197.38886363636365,161.40801769300373L197.65488636363636,161.4406777535179L197.9209090909091,161.4732394720996L198.18693181818182,161.5056932179777L198.45295454545456,161.5380828902299L198.71897727272727,161.57033990836655L198.985,161.6025110555387L199.25102272727273,161.63459166020428L199.51704545454544,161.6665130881633L199.78306818181818,161.69836231005297L200.0490909090909,161.73015102066327L200.31511363636363,161.76177969740098L200.58113636363635,161.79333934054085L200.8471590909091,161.824770647457L201.1131818181818,161.85616119912424L201.37920454545457,161.8874960070062L201.64522727272728,161.91861707223447L201.91125,161.9496469628956L202.17727272727274,161.98059944380918L202.44329545454545,162.0114481540842L202.7093181818182,162.0422748216706L202.9753409090909,162.07296939431342L203.24136363636364,162.10351747987875L203.50738636363636,162.1340395137733L203.7734090909091,162.16440781637203L204.0394318181818,162.19472670749596L204.30545454545455,162.22495250744947L204.57147727272726,162.25504645193385L204.83749999999998,162.28510005689245L205.10352272727272,162.31502393391247L205.36954545454543,162.34487865037357L205.6355681818182,162.3745765407559L205.9015909090909,162.40427928470365L206.16761363636365,162.433859240759L206.43363636363637,162.46328950309723L206.6996590909091,162.4927177510452L206.96568181818182,162.52199402823663L207.23170454545453,162.55119857053197L207.49772727272727,162.58034929627755L207.76375,162.609424460427L208.02977272727273,162.63832724131018L208.29579545454544,162.66718003126837L208.56181818181818,162.69596379122575L208.8278409090909,162.72465113655318L209.09386363636366,162.75322374617826L209.35988636363638,162.78169238614313L209.6259090909091,162.81015554991257L209.89193181818183,162.83849869464908L210.15795454545454,162.86673315540187L210.42397727272729,162.89489456412258L210.69,162.9230156839983L210.95602272727274,162.95102799949652L211.22204545454545,162.9789674080899L211.4880681818182,163.00676551118292L211.7540909090909,163.0345053958347L212.02011363636362,163.0621882155684L212.28613636363636,163.0897785685607L212.55215909090907,163.11728360862404L212.8181818181818,163.14469412901758L213.08420454545453,163.1720602953256L213.3502272727273,163.1993168706093L213.61625,163.22651504503776L213.88227272727275,163.25361154227375L214.14829545454546,163.28069303345876L214.4143181818182,163.30755285424482L214.68034090909092,163.334455395919L214.94636363636363,163.36126055120252L215.21238636363637,163.38795935163907L215.47840909090908,163.4145832648606L215.74443181818182,163.44113512426787L216.01045454545454,163.46760947139887L216.27647727272728,163.4940162768568L216.5425,163.52034993232326L216.80852272727273,163.54659717186814L217.07454545454544,163.57275589753166L217.34056818181816,163.59881819737416L217.60659090909093,163.62487064619182L217.87261363636364,163.65081635833286L218.13863636363638,163.67668297413306L218.4046590909091,163.70249318962723L218.67068181818183,163.72820280730528L218.93670454545455,163.75384569178752L219.2027272727273,163.77944051564623L219.46875,163.80492258946146L219.7347727272727,163.8303544777536L220.00079545454545,163.8557245987813L220.26681818181817,163.88098742900922L220.5328409090909,163.90615540556274L220.79886363636362,163.9313255916923L221.06488636363636,163.95641139091725L221.33090909090907,163.9814131387187L221.59693181818184,164.0063447500294L221.86295454545456,164.03119006684017L222.12897727272727,164.0559504923711L222.395,164.080683803414L222.66102272727272,164.1053406471516L222.92704545454546,164.12994862761562L223.19306818181818,164.1544511250952L223.45909090909092,164.1788591555323L223.72511363636363,164.20321668259612L223.99113636363637,164.2275710657271L224.25715909090908,164.25175695299586L224.5231818181818,164.27596240686916L224.78920454545454,164.3000727271127L225.05522727272725,164.32404244549954L225.32125,164.34802576367042L225.5872727272727,164.37191699477822L225.85329545454547,164.395734745452L226.1193181818182,164.4195306895641L226.38534090909093,164.4432203646915L226.65136363636364,164.4668304962974L226.91738636363638,164.49038915960767L227.1834090909091,164.51387171132944L227.4494318181818,164.53735015278846L227.71545454545455,164.5607541598365L227.98147727272726,164.5840609057203L228.2475,164.60727535048L228.51352272727271,164.63046590937833L228.77954545454546,164.65358491087662L229.04556818181817,164.6766304280837L229.3115909090909,164.6996181173975L229.57761363636362,164.72252697590432L229.84363636363634,164.7454255024646L230.1096590909091,164.7682287975206L230.37568181818182,164.79096771648864L230.64170454545456,164.81365523121545L230.90772727272727,164.83625572640986L231.17375,164.85881185346588L231.43977272727273,164.88133355994134L231.70579545454547,164.9037781622853L231.97181818181818,164.92616899624068L232.2378409090909,164.94845306531454L232.50386363636363,164.97072960864287L232.76988636363635,164.9929052394889L233.0359090909091,165.01503674412504L233.3019318181818,165.03710392927908L233.56795454545457,165.0591116462389L233.83397727272728,165.08108962745902L234.10000000000002,165.1029628674424L234.36602272727274,165.12481889174262L234.63204545454545,165.14661154475013L234.8980681818182,165.16832004672423L235.1640909090909,165.18999364467072L235.43011363636364,165.21160941767803L235.69613636363636,165.23315547265761L235.9621590909091,165.25466659451598L236.2281818181818,165.27608534505785L236.49420454545455,165.29746417720915L236.76022727272726,165.318807726665L237.02625,165.34004852231766L237.29227272727272,165.36125251762573L237.55829545454543,165.3823936807005L237.8243181818182,165.40351497872643L238.0903409090909,165.42455604143365L238.35636363636365,165.44552847364656L238.62238636363637,165.46648135346825L238.8884090909091,165.4873585386049L239.15443181818182,165.5081949472512L239.42045454545456,165.5289460182748L239.68647727272727,165.54966503058992L239.9525,165.5703177708245L240.21852272727273,165.59092572125238L240.48454545454544,165.61148051856648L240.75056818181818,165.63196238969854L241.0165909090909,165.65242478455446L241.28261363636364,165.6728026728198L241.54863636363635,165.69315303404846L241.81465909090912,165.713442773428L242.08068181818183,165.73368040237744L242.34670454545454,165.7538553919617L242.61272727272728,165.77398861951644L242.87875,165.79406837302514L243.14477272727274,165.8140868243573L243.41079545454545,165.83406735338366L243.6768181818182,165.85398830128312L243.9428409090909,165.87387576973882L244.20886363636365,165.8936792802707L244.47488636363636,165.91344846872047L244.74090909090907,165.9331706396225L245.0069318181818,165.95283640501899L245.27295454545452,165.97244732427677L245.53897727272727,165.9920106737623L245.80499999999998,166.0115448644555L246.07102272727275,166.03103473846335L246.33704545454546,166.0504377128828L246.6030681818182,166.0698019202441L246.86909090909091,166.08911317906347L247.13511363636366,166.10838316339212L247.40113636363637,166.12761995593698L247.66715909090908,166.14676874678105L247.93318181818182,166.1659249812338L248.19920454545453,166.18499639802928L248.46522727272728,166.204016709128L248.73125,166.22302006534738L248.99727272727273,166.2419381471798L249.26329545454544,166.26082339996273L249.52931818181818,166.27965435342315L249.7953409090909,166.2984555703907L250.0613636363636,166.3172173766438L250.32738636363638,166.33589708458814L250.5934090909091,166.35454718375962L250.85943181818183,166.37316617613183L251.12545454545455,166.39173801458054L251.3914772727273,166.41021308852177L251.6575,166.42867447986833L251.92352272727274,166.4470943968924L252.18954545454545,166.4654708165548L252.45556818181817,166.48378663533663L252.7215909090909,166.50207133901904L252.98761363636362,166.5203200409879L253.25363636363636,166.5385113365351L253.51965909090907,166.55666195197338L253.7856818181818,166.5747600201343L254.05170454545453,166.59280879861748L254.3177272727273,166.6108225835916L254.58375,166.62880004246915L254.84977272727272,166.64672233940487L255.11579545454546,166.6646211050909L255.38181818181818,166.68243684554616L255.64784090909092,166.70023914515374L255.91386363636363,166.71799437523617L256.1798863636364,166.7356802990016L256.4459090909091,166.7533570344343L256.7119318181818,166.77097457498564L256.97795454545457,166.7885348332431L257.2439772727273,166.80607544662544L257.51,166.82354824872746L257.77602272727273,166.84100948400928L258.0420454545455,166.85840707513668L258.30806818181816,166.8757755168788L258.5740909090909,166.8931007275569L258.84011363636364,166.9103855164977L259.1061363636364,166.927607219301L259.37215909090907,166.94481592766348L259.6381818181818,166.96197460267095L259.90420454545455,166.9790990482646L260.17022727272723,166.9961511996414L260.43625000000003,167.01318459603127L260.7022727272727,167.030177364006L260.96829545454545,167.04711855274914L261.2343181818182,167.0640238727696L261.50034090909094,167.0808993226978L261.7663636363636,167.09772006108804L262.03238636363636,167.11451394017834L262.2984090909091,167.13126448372583L262.5644318181818,167.14795775087623L262.83045454545453,167.16464090608565L263.09647727272727,167.1812735518052L263.3625,167.19783365705814L263.6285227272727,167.21437762314014L263.89454545454544,167.23088039918147L264.1605681818182,167.24736159085612L264.4265909090909,167.26379293071813L264.69261363636366,167.28017938735795L264.95863636363634,167.29653676733477L265.2246590909091,167.31283433650557L265.4906818181818,167.32912579246383L265.75670454545457,167.34536282235476" style="fill: none;" fill="none"></path></g></g></g></g><g opacity="0.2"><g><g><g><path stroke="rgb(255, 112, 67)" stroke-width="2px" d="M26.602272727272727,0.5058313608169556L26.868295454545454,-1.0212315917015076L27.13431818181818,4.101067900657654L27.40034090909091,15.333887457847595L27.666363636363634,13.231443881988518L27.932386363636365,-0.9954016208648813L28.198409090909088,-1.0858153104782235L28.46443181818182,22.242604613304124L28.730454545454542,15.952910006046295L28.996477272727272,23.164078712463372L29.262500000000003,13.294515430927277L29.528522727272726,-0.5101709365844989L29.794545454545457,20.350088894367204L30.06056818181818,10.904882669448853L30.32659090909091,12.198262631893158L30.592613636363634,16.644798040390008L30.858636363636364,24.460570931434624L31.12465909090909,7.93244910240172L31.390681818181818,20.288265764713273L31.656704545454545,12.45547217130661L31.922727272727272,21.17990088462828L32.18875,16.994337856769548L32.454772727272726,20.08827251195907L32.72079545454545,21.01157528162001L32.98681818181818,25.4523257613182L33.25284090909091,19.172319591045373L33.51886363636363,17.99987804889679L33.78488636363636,17.90498059988022L34.050909090909094,27.487688779830926L34.31693181818182,22.855930149555192L34.58295454545455,18.20584964752196L34.848977272727275,28.429032087326036L35.115,27.617946386337266L35.38102272727273,25.75235080718994L35.647045454545456,31.525815248489373L35.91306818181818,22.59998661279677L36.17909090909091,33.5827003121376L36.44511363636364,22.97495198249817L36.71113636363636,31.58210840821266L36.97715909090909,29.75682270526886L37.24318181818182,25.707337379455552L37.509204545454544,41.71286386251449L37.77522727272727,31.747154712676995L38.04125,35.88109296560286L38.30727272727273,37.83354160189628L38.57329545454545,27.611088871955857L38.83931818181818,46.442236572504044L39.105340909090906,42.215088874101625L39.37136363636364,52.83467081189155L39.63738636363637,35.340202122926705L39.903409090909086,36.54953357577324L40.16943181818182,51.27983492612838L40.43545454545455,45.06188046932219L40.701477272727274,42.094255954027176L40.9675,57.82271248102187L41.23352272727273,45.724949359893785L41.499545454545455,50.61612424254416L41.76556818181818,54.72694036364554L42.03159090909091,52.468664169311516L42.297613636363636,62.53918778896331L42.56363636363636,60.67394387722015L42.82965909090909,61.74718004465103L43.095681818181816,64.20810458064079L43.36170454545455,68.32770359516144L43.62772727272727,70.62882167100906L43.89375,65.31535577774048L44.159772727272724,70.01901280879973L44.42579545454546,67.84453016519547L44.691818181818185,88.0202693939209L44.957840909090905,76.01266500353812L45.22386363636363,87.52466452121733L45.489886363636366,81.31325107812881L45.75590909090909,91.31665897369383L46.02193181818182,88.25609755516051L46.28795454545455,84.76406660676001L46.55397727272727,109.429653480649L46.82,94.49690160155296L47.08602272727273,79.38208711147308L47.352045454545454,108.3231100142002L47.61806818181818,99.27570116519927L47.88409090909091,99.51938030123709L48.150113636363635,107.53598165512085L48.41613636363637,107.52422277629374L48.68215909090909,112.676264539361L48.948181818181816,109.86095157265663L49.21420454545454,119.39756494760513L49.48022727272728,117.24669677019119L49.74625,114.9253666102886L50.01227272727272,127.62500409781933L50.27829545454545,122.0860270857811L50.544318181818184,125.8502837717533L50.81034090909091,121.93875317275524L51.07636363636364,133.1824832111597L51.34238636363636,143.69260647147894L51.60840909090909,115.46964225172995L51.87443181818182,137.301673412323L52.140454545454546,132.81415995955467L52.40647727272727,140.66107299923897L52.6725,134.36302629113197L52.938522727272726,141.87012311816216L53.20454545454545,137.15963934361935L53.47056818181819,140.5190675035119L53.73659090909091,147.4300045594573L54.002613636363634,132.86476489901543L54.26863636363636,151.92106545716524L54.534659090909095,148.93323764950037L54.80068181818182,142.8182492107153L55.06670454545454,148.68765291571617L55.33272727272727,153.0575072467327L55.59875,148.33790209889412L55.86477272727273,145.60803112387657L56.13079545454545,159.4758472852409L56.396818181818176,150.39788623154163L56.66284090909091,142.91867003589869L56.92886363636364,150.56052581220865L57.194886363636364,152.29783312231302L57.460909090909084,159.49602420255542L57.72693181818182,156.53173723071814L57.992954545454545,158.5690596960485L58.25897727272727,151.85272329300642L58.525000000000006,158.12374655902386L58.791022727272725,158.4996526390314L59.05704545454545,155.68836626410484L59.32306818181818,162.94111304730177L59.58909090909091,156.00226898491383L59.85511363636364,159.35803101211786L60.12113636363636,159.10443595424294L60.38715909090909,160.9272654801607L60.65318181818182,162.97044980153441L60.91920454545455,160.07167187333107L61.18522727272727,159.53178767859936L61.451249999999995,168.7378007248044L61.71727272727273,161.9665965139866L61.983295454545456,170.30009141005576L62.24931818181818,158.2887730821967L62.5153409090909,164.69472893327475L62.781363636363636,162.79235333949327L63.04738636363636,167.88756784796715L63.31340909090909,162.69528874009848L63.579431818181824,166.93980990722775L63.845454545454544,169.16090551577508L64.11147727272727,169.47610116377473L64.3775,167.4929156973958L64.64352272727272,164.10275180637836L64.90954545454545,168.4087037742138L65.17556818181818,167.53159691393375L65.4415909090909,168.31960773840547L65.70761363636363,170.87262627482414L65.97363636363636,165.19795180112123L66.23965909090909,170.799956953153L66.50568181818181,169.70284421741962L66.77170454545454,170.91018160618842L67.03772727272727,168.59126036800444L67.30375000000001,169.18648547306657L67.56977272727272,169.8809934295714L67.83579545454545,172.08728878572583L68.10181818181819,169.87553379312158L68.36784090909092,171.50812499038875L68.63386363636364,171.30592447519302L68.89988636363636,169.36138615757227L69.1659090909091,173.2139877397567L69.43193181818182,171.82746646739542L69.69795454545455,172.1494163274765L69.96397727272728,172.3270462807268L70.23,171.02102002874017L70.49602272727273,172.78883091453463L70.76204545454546,172.67692732438445L71.02806818181818,171.64650556445122L71.29409090909091,171.38693765550852L71.56011363636364,174.25845833774656L71.82613636363637,172.37923097610474L72.09215909090909,173.78329907823354L72.35818181818182,172.61600506771356L72.62420454545455,172.60066137928516L72.89022727272727,173.45983457565308L73.15625,172.7425679685548L73.42227272727273,173.78531292360276L73.68829545454545,173.6344588715583L73.95431818181818,172.71273118723184L74.22034090909092,174.59447352029383L74.48636363636363,174.1842848137021L74.75238636363636,172.75558598153293L75.01840909090909,174.82559400890023L75.28443181818182,173.76252020522952L75.55045454545454,174.28774673771113L75.81647727272727,174.0596692711115L76.0825,174.75549048557878L76.34852272727274,174.17377820052207L76.61454545454546,173.92710109986365L76.88056818181819,174.34633727464825L77.1465909090909,174.502055875957L77.41261363636363,174.7508564433083L77.67863636363636,175.41349399182945L77.94465909090908,175.11029569711536L78.21068181818181,172.98423490766436L78.47670454545455,174.29570953175426L78.74272727272728,175.54985550045967L79.00875,174.47252185828984L79.27477272727273,174.72922395262867L79.54079545454545,174.87235148716718L79.80681818181817,175.14246941823512L80.0728409090909,175.21425448870286L80.33886363636364,174.86248611751944L80.60488636363637,175.03771937498823L80.8709090909091,175.14104956109077L81.13693181818182,175.53251582477242L81.40295454545455,174.79432349605486L81.66897727272728,175.57331570005044L81.935,174.69814232364297L82.20102272727271,175.58132478781044L82.46704545454546,174.7184616937302L82.73306818181818,175.9369844412431L82.99909090909091,175.43947561923414L83.26511363636364,175.49201253149658L83.53113636363636,175.52553879842162L83.79715909090909,175.37047449080274L84.06318181818182,175.53962912224233L84.32920454545456,175.68452914291993L84.59522727272727,175.35197582375258L84.86125,175.75198293477297L85.12727272727273,175.32673544529825L85.39329545454545,175.78347598714754L85.65931818181818,175.67525707464665L85.9253409090909,175.51994165452197L86.19136363636363,175.89790849178098L86.45738636363637,175.70264001423493L86.7234090909091,175.25843366794288L86.98943181818183,176.3720516934991L87.25545454545454,176.0183458547108L87.52147727272727,175.27435293700546L87.7875,176.1377914743498L88.05352272727272,175.9743968390394L88.31954545454545,175.89025402488187L88.58556818181819,175.63879356067628L88.85159090909092,175.9155636378564L89.11761363636364,175.97897868067957L89.38363636363637,175.79870923003182L89.64965909090908,175.87425247114152L89.91568181818181,175.9112757681869L90.18170454545454,176.03343286714517L90.44772727272726,176.18620213284157L90.71375,175.97655334323645L90.97977272727273,175.74961275141686L91.24579545454546,176.06000030925497L91.51181818181819,175.858028446557L91.77784090909091,176.2547616851516L92.04386363636364,176.18065306846984L92.30988636363635,175.94684898667037L92.5759090909091,176.09086400060914L92.84193181818182,176.12426656577736L93.10795454545455,175.98392379749566L93.37397727272727,176.19877774547786L93.64,176.11125466576777L93.90602272727273,175.9042518986389L94.17204545454545,176.453547008452L94.4380681818182,175.9732423122041L94.70409090909091,176.22048077569343L94.97011363636364,176.3433733540587L95.23613636363636,176.22600999008864L95.50215909090909,176.09981991164386L95.76818181818182,176.319932180224L96.03420454545454,175.95113575737923L96.30022727272727,176.59754701470956L96.56625000000001,176.1521515243221L96.83227272727274,176.28060298901983L97.09829545454546,176.23712920513935L97.36431818181818,176.29146937443875L97.6303409090909,176.27718199323863L97.89636363636363,176.0623133466579L98.16238636363636,176.5874671760248L98.42840909090908,176.52755987818819L98.69443181818183,176.2698563216254L98.96045454545455,176.11022260435857L99.22647727272728,176.3687972589396L99.4925,176.50691621168517L99.75852272727272,176.09976894734427L100.02454545454545,176.46097141481005L100.29056818181817,176.31431504897773L100.5565909090909,176.30091789457947L100.82261363636364,176.5249827124644L101.08863636363637,176.14117462467402L101.3546590909091,176.51155887392815L101.62068181818182,176.54257301986217L101.88670454545455,176.20706933480687L102.15272727272728,176.47187739715446L102.41874999999999,176.54568287241273L102.68477272727272,176.29730753414333L102.95079545454546,176.42556142632384L103.21681818181818,176.45724762103055L103.48284090909091,176.4399456877727L103.74886363636364,176.4129087147303L104.01488636363636,176.5217526954366L104.28090909090909,176.24583585816436L104.54693181818183,176.64010629162658L104.81295454545455,176.23184629529715L105.07897727272727,176.55687221488915L105.345,176.65981793648098L105.61102272727273,176.3963163322769L105.87704545454545,176.5420069177635L106.14306818181818,176.53298822860233L106.4090909090909,176.3981919833459L106.67511363636365,176.57961795269512L106.94113636363637,176.54193081473932L107.2071590909091,176.29560428252444L107.47318181818181,176.56747588003054L107.73920454545454,176.73137375345686L108.00522727272727,176.5929408929078L108.27125,176.38347497722134L108.53727272727272,176.63972684112377L108.80329545454546,176.55501706630457L109.06931818181819,176.60892884701025L109.33534090909092,176.44247772742528L109.60136363636364,176.53093798016198L109.86738636363636,176.53417864337098L110.13340909090908,176.61232879082672L110.39943181818181,176.59616232430562L110.66545454545454,176.4383562816074L110.93147727272728,176.69673617975786L111.1975,176.65046894096304L111.46352272727273,176.63750134280417L111.72954545454546,176.42836099420674L111.99556818181819,176.6578072849661L112.2615909090909,176.58216606464703L112.52761363636363,176.51589815435L112.79363636363635,176.64547581330407L113.0596590909091,176.4618473551236L113.32568181818182,176.71666718745837L113.59170454545455,176.57859385875054L113.85772727272727,176.55522521631792L114.12375,176.7242320375517L114.38977272727273,176.61430307361297L114.65579545454545,176.53517134825233L114.92181818181817,176.74016749911243L115.18784090909091,176.70106275344733L115.45386363636364,176.5493757922668L115.71988636363636,176.64587504509836L115.98590909090909,176.75576791504864L116.25193181818182,176.6159035380697L116.51795454545454,176.52244074782357L116.78397727272728,176.74171272362582L117.05000000000001,176.61028087767772L117.31602272727272,176.58363472251222L117.58204545454545,176.54809186281636L117.84806818181818,176.73909189138794L118.1140909090909,176.69330931140576L118.38011363636363,176.70206191472244L118.64613636363636,176.57630177028477L118.9121590909091,176.73115648550447L119.17818181818183,176.76652297918918L119.44420454545455,176.56994627485983L119.71022727272728,176.6864773822017L119.97625,176.72932220000075L120.24227272727272,176.61638010921888L120.50829545454545,176.70159983611666L120.77431818181817,176.65897410642356L121.04034090909092,176.67794855474494L121.30636363636364,176.73162435082486L121.57238636363637,176.72827435820363L121.8384090909091,176.74383193184622L122.10443181818182,176.5944421418244L122.37045454545454,176.64522157562897L122.63647727272726,176.7967485350091L122.90249999999999,176.65435012651142L123.16852272727273,176.71249740454368L123.43454545454546,176.75561450701207L123.70056818181818,176.6454090514453L123.96659090909091,176.65864404046442L124.23261363636364,176.70452822279185L124.49863636363636,176.79900780919706L124.76465909090909,176.63376600993797L125.0306818181818,176.75613500224426L125.29670454545455,176.77884174411884L125.56272727272727,176.7514473341289L125.82875,176.76850411330815L126.09477272727273,176.64895292476285L126.36079545454545,176.71607331943233L126.62681818181818,176.78006304998416L126.8928409090909,176.6836676489329L127.15886363636365,176.75764205504674L127.42488636363636,176.7013329260517L127.69090909090909,176.75911103916587L127.95693181818181,176.7396711295005L128.22295454545454,176.86023987832596L128.48897727272728,176.60857422614936L128.755,176.7677267016843L129.02102272727274,176.7326245252043L129.28704545454545,176.7470710152993L129.5530681818182,176.72493720968487L129.8190909090909,176.78457620658446L130.08511363636362,176.7508407078567L130.35113636363636,176.73824649874587L130.6171590909091,176.8190088928095L130.8831818181818,176.7118234669324L131.14920454545455,176.68167097482365L131.41522727272726,176.82142147200648L131.68125,176.79296920937486L131.94727272727272,176.69192558259238L132.21329545454546,176.79973987152334L132.47931818181817,176.82566947001033L132.7453409090909,176.77628569904482L133.01136363636363,176.73586967011215L133.27738636363637,176.812421190436L133.54340909090908,176.77180964953732L133.80943181818182,176.78474568692036L134.07545454545453,176.77863297594013L134.34147727272727,176.7323369065998L134.60750000000002,176.84785652370192L134.87352272727273,176.76244145655073L135.13954545454544,176.73880209203344L135.40556818181818,176.78286557132378L135.6715909090909,176.848090018495L135.93761363636364,176.86645974655403L136.20363636363638,176.7681963184732L136.4696590909091,176.72444437735248L136.73568181818183,176.79618545505218L137.00170454545454,176.79228603362571L137.26772727272729,176.7950126923388L137.53375,176.78023613628466L137.7997727272727,176.75954267312773L138.06579545454545,176.86738191189943L138.3318181818182,176.77569098962704L138.5978409090909,176.83768802980194L138.86386363636365,176.7899677589885L139.12988636363636,176.8256876715459L139.3959090909091,176.81223989627324L139.6619318181818,176.7710889717564L139.92795454545455,176.8398331151111L140.19397727272727,176.8049777583219L140.46,176.77512746321736L140.72602272727272,176.8244416047237L140.99204545454546,176.7682248055935L141.25806818181817,176.85053615033394L141.52409090909092,176.8324509500526L141.79011363636363,176.8538774199551L142.05613636363637,176.7445005978807L142.3221590909091,176.88095867767697L142.58818181818182,176.7571142448578L142.85420454545454,176.81640459649498L143.12022727272728,176.88127599397558L143.38625,176.77611324808095L143.65227272727273,176.8048077285057L143.91829545454544,176.83562488574535L144.18431818181818,176.792575884494L144.45034090909093,176.85027670976706L144.71636363636364,176.84943420189666L144.98238636363638,176.8226337286178L145.2484090909091,176.80732579075266L145.5144318181818,176.77129475213587L145.78045454545455,176.86406543757766L146.04647727272726,176.86306501421495L146.3125,176.83058721583802L146.5785227272727,176.8083275964018L146.84454545454545,176.86924047756474L147.11056818181817,176.87766265432583L147.3765909090909,176.83226869429927L147.64261363636362,176.7905531959259L147.90863636363636,176.8886174974905L148.17465909090907,176.8373030158109L148.44068181818184,176.77932696958305L148.70670454545456,176.8522561439313L148.97272727272727,176.81966945400927L149.23875,176.85537650529295L149.50477272727272,176.83652012655511L149.77079545454546,176.83145668258658L150.03681818181818,176.86872920329915L150.30284090909092,176.88904742291197L150.56886363636363,176.8009972885484L150.83488636363637,176.8515557454084L151.10090909090908,176.86407264950685L151.3669318181818,176.831742051756L151.63295454545454,176.85095844313037L151.89897727272725,176.83272771642078L152.165,176.86739045460126L152.4310227272727,176.85417170100845L152.69704545454547,176.8397480143467L152.9630681818182,176.8934562211798L153.22909090909093,176.8222903549322L153.49511363636364,176.89728949032724L153.76113636363638,176.86026559228776L154.0271590909091,176.79955340881133L154.2931818181818,176.8705222348508L154.55920454545455,176.82720746542327L154.82522727272726,176.8820095587871L155.09125,176.85780330229318L155.35727272727271,176.84302786237095L155.62329545454546,176.88517811128986L155.88931818181817,176.84491522423923L156.1553409090909,176.85418615920935L156.42136363636362,176.89429865177954L156.68738636363634,176.82323771051597L156.9534090909091,176.90281410282478L157.21943181818182,176.86781640487607L157.48545454545456,176.89068999988376L157.75147727272727,176.86448490570183L158.0175,176.84097191307228L158.28352272727273,176.84661167603917L158.54954545454547,176.89803587348433L158.81556818181818,176.8597043324844L159.0815909090909,176.88423976203194L159.34761363636363,176.85471475927625L159.61363636363635,176.87292867532233L159.8796590909091,176.8736666016339L160.1456818181818,176.86659677320858L160.41170454545457,176.87694187351735L160.67772727272728,176.8568329543923L160.94375000000002,176.88829309804714L161.20977272727274,176.87912319877069L161.47579545454545,176.90217908387422L161.7418181818182,176.86682588933036L162.0078409090909,176.85592038778123L162.27386363636364,176.85391028574668L162.53988636363636,176.88479136300157L162.8059090909091,176.89887006187928L163.0719318181818,176.89576122243307L163.33795454545455,176.88597702991683L163.60397727272726,176.8501923988806L163.87,176.88570537199848L164.13602272727272,176.90005267231027L164.40204545454543,176.85245898802532L164.6680681818182,176.8885332295322L164.9340909090909,176.88617755589075L165.20011363636365,176.8725654516602L165.46613636363637,176.8692606537952L165.7321590909091,176.9278150795726L165.99818181818182,176.85009402473224L166.26420454545456,176.88677112341975L166.53022727272727,176.90472699835664L166.79625,176.86384743984672L167.06227272727273,176.8612610960845L167.32829545454544,176.8950826228247L167.59431818181818,176.91064553672913L167.8603409090909,176.90373516920954L168.12636363636364,176.90403269563103L168.39238636363635,176.8533128289273L168.65840909090912,176.9446102460206L168.92443181818183,176.87031350960024L169.19045454545454,176.85020665102638L169.45647727272728,176.89040390093578L169.7225,176.88267236942193L169.98852272727274,176.90647048223764L170.25454545454545,176.88913756344118L170.5205681818182,176.91238546615932L170.7865909090909,176.8772881749028L171.05261363636365,176.89179443815374L171.31863636363636,176.92209500662284L171.58465909090907,176.8657483412535L171.8506818181818,176.889350598678L172.11670454545452,176.91524695360567L172.38272727272727,176.88172948695137L172.64874999999998,176.8460717772832L172.91477272727275,176.94077365423436L173.18079545454546,176.90840666199801L173.4468181818182,176.87414009912754L173.71284090909091,176.87452034809394L173.97886363636366,176.96099139621947L174.24488636363637,176.88601225675666L174.51090909090908,176.91121806087904L174.77693181818182,176.9055721591867L175.04295454545453,176.89158808253706L175.30897727272728,176.89865931900567L175.575,176.91850374921341L175.84102272727273,176.87213848828105L176.10704545454544,176.92049601889448L176.37306818181818,176.91972047035233L176.6390909090909,176.91934177538496L176.9051136363636,176.89035131395212L177.17113636363638,176.90345892656478L177.4371590909091,176.9369331345224L177.70318181818183,176.87782172029256L177.96920454545455,176.90091381099774L178.2352272727273,176.92065686208662L178.50125,176.91461493103998L178.76727272727274,176.87913568227668L179.03329545454545,176.9151720010559L179.29931818181817,176.93008709483547L179.5653409090909,176.87196759990184L179.83136363636362,176.92171266276273L180.09738636363636,176.89906098053325L180.36340909090907,176.90595038194442L180.6294318181818,176.91125015396392L180.89545454545453,176.92659794632345L181.1614772727273,176.88889669359196L181.4275,176.928697729556L181.69352272727272,176.91661512525752L181.95954545454546,176.8833943779755L182.22556818181818,176.93176622512692L182.49159090909092,176.92282919818535L182.75761363636363,176.87584129878087L183.02363636363637,176.91753945418168L183.28965909090908,176.8863827524474L183.55568181818182,176.94177612526983L183.82170454545454,176.94885526910366L184.08772727272728,176.8881662110216L184.35375,176.90387687503244L184.6197727272727,176.95597047687625L184.88579545454547,176.89107890316518L185.1518181818182,176.89614888938377L185.41784090909093,176.8872994229896L185.68386363636364,176.93497878327616L185.94988636363638,176.92971579209552L186.2159090909091,176.89157640608028L186.48193181818183,176.93842122596106L186.74795454545455,176.92106516030617L187.01397727272726,176.9305069836555L187.28,176.9271659887745L187.5460227272727,176.8924541407905L187.81204545454545,176.91476573763066L188.07806818181817,176.93810797066544L188.3440909090909,176.90189623029437L188.61011363636362,176.91364745073952L188.8761363636364,176.93446786531422L189.1421590909091,176.91124813634087L189.40818181818182,176.90263280866202L189.67420454545456,176.92825905108475L189.94022727272727,176.93584851617925L190.20625,176.9223520689702L190.47227272727272,176.89437655778602L190.73829545454547,176.95650316799583L191.00431818181818,176.9085903086234L191.27034090909092,176.94976037050947L191.53636363636363,176.90722070317133L191.80238636363634,176.92043207312236L192.06840909090909,176.93238946888596L192.3344318181818,176.91774858295685L192.60045454545454,176.87287342679338L192.86647727272725,176.9511135087232L193.13250000000002,176.95609379657253L193.39852272727273,176.92828342568828L193.66454545454548,176.91023605369264L193.9305681818182,176.94137435642187L194.19659090909093,176.92096688059974L194.46261363636364,176.91825607954524L194.72863636363635,176.9433998567838L194.9946590909091,176.91002574010054L195.2606818181818,176.94836761819897L195.52670454545455,176.9212736795016L195.79272727272726,176.92181652312865L196.05875,176.9365164867777L196.32477272727272,176.92542079635314L196.59079545454546,176.940733288895L196.85681818181817,176.9370101004024L197.12284090909088,176.90466463234043L197.38886363636365,176.94307732042216L197.65488636363636,176.92094970075414L197.9209090909091,176.92399463735637L198.18693181818182,176.92223637760617L198.45295454545456,176.94116025227413L198.71897727272727,176.92721768285264L198.985,176.93533047643723L199.25102272727273,176.94101723714266L199.51704545454544,176.91365067035076L199.78306818181818,176.92761568690185L200.0490909090909,176.94702649128158L200.31511363636363,176.91850564663764L200.58113636363635,176.93338825239334L200.8471590909091,176.91957445454318L201.1131818181818,176.9476763333223L201.37920454545457,176.96845017300075L201.64522727272728,176.9128120946989L201.91125,176.9159624800086L202.17727272727274,176.92557129386114L202.44329545454545,176.92223879875382L202.7093181818182,176.95830678992206L202.9753409090909,176.94089663479826L203.24136363636364,176.9162094456551L203.50738636363636,176.94979054041323L203.7734090909091,176.921132686286L204.0394318181818,176.94299715210218L204.30545454545455,176.94343242637115L204.57147727272726,176.92472881174763L204.83749999999998,176.95049192628358L205.10352272727272,176.93240374678862L205.36954545454543,176.9437157993816L205.6355681818182,176.9118724060827L205.9015909090909,176.9590843689657L206.16761363636365,176.94355209288187L206.43363636363637,176.91451848865836L206.6996590909091,176.95790618442697L206.96568181818182,176.92733912658878L207.23170454545453,176.93605191833922L207.49772727272727,176.95345824427204L207.76375,176.95998710932327L208.02977272727273,176.9184154717659L208.29579545454544,176.937137635643L208.56181818181818,176.94629982931656L208.8278409090909,176.9417100330902L209.09386363636366,176.9278050257999L209.35988636363638,176.91901254223194L209.6259090909091,176.9590563669335L209.89193181818183,176.94196419349464L210.15795454545454,176.93027466509375L210.42397727272729,176.93615506180504L210.69,176.9582600154099L210.95602272727274,176.94597145472653L211.22204545454545,176.95143954802188L211.4880681818182,176.92243940199842L211.7540909090909,176.93486086823395L212.02011363636362,176.94773204118246L212.28613636363636,176.94266520589008L212.55215909090907,176.9410028175771L212.8181818181818,176.93451572590857L213.08420454545453,176.95313930958218L213.3502272727273,176.93871136444795L213.61625,176.94993207023072L213.88227272727275,176.9391224658757L214.14829545454546,176.97200139347115L214.4143181818182,176.90004733204842L214.68034090909092,176.96183043549536L214.94636363636363,176.95250520929403L215.21238636363637,176.93841279487242L215.47840909090908,176.940114011697L215.74443181818182,176.94309733781847L216.01045454545454,176.94314102150383L216.27647727272728,176.94810813470394L216.5425,176.95006285513227L216.80852272727273,176.94507480587345L217.07454545454544,176.93882895752904L217.34056818181816,176.92834091506666L217.60659090909093,176.96205698451377L217.87261363636364,176.94599757221295L218.13863636363638,176.9439194977458L218.4046590909091,176.95334754974465L218.67068181818183,176.93989537862944L218.93670454545455,176.943685161561L219.2027272727273,176.9569633234205L219.46875,176.93673303353717L219.7347727272727,176.94860306193004L220.00079545454545,176.95437082376156L220.26681818181817,176.9364335066639L220.5328409090909,176.92471892968751L220.79886363636362,176.96315736607357L221.06488636363636,176.95662452587567L221.33090909090907,176.95008839738148L221.59693181818184,176.95061384222936L221.86295454545456,176.94257683400065L222.12897727272727,176.93509013031144L222.395,176.95756337739294L222.66102272727272,176.9542042410758L222.92704545454546,176.96510918026615L223.19306818181818,176.94629115783027L223.45909090909092,176.93302256894822L223.72511363636363,176.94259547769616L223.99113636363637,176.9768978276188L224.25715909090908,176.9243780458346L224.5231818181818,176.97033414139878L224.78920454545454,176.9559940616018L225.05522727272725,176.9175230813853L225.32125,176.9600103162811L225.5872727272727,176.94677997638064L225.85329545454547,176.9431799272861L226.1193181818182,176.96672413297347L226.38534090909093,176.94555481986026L226.65136363636364,176.93831166044401L226.91738636363638,176.9457742513914L227.1834090909091,176.94006078937673L227.4494318181818,176.97239516480477L227.71545454545455,176.96736095490633L227.98147727272726,176.95003735581122L228.2475,176.93515335918346L228.51352272727271,176.9565116634767L228.77954545454546,176.95240496347833L229.04556818181817,176.9471211349737L229.3115909090909,176.95004360185703L229.57761363636362,176.94162007715204L229.84363636363634,176.96966981110745L230.1096590909091,176.95224141151994L230.37568181818182,176.95115015219199L230.64170454545456,176.95688015013002L230.90772727272727,176.9433857119584L231.17375,176.95262394855672L231.43977272727273,176.96711436273472L231.70579545454547,176.95856047382404L231.97181818181818,176.96241535729496L232.2378409090909,176.9375906392379L232.50386363636363,176.96608740548254L232.76988636363635,176.94413664120657L233.0359090909091,176.9526688943297L233.3019318181818,176.95018462512235L233.56795454545457,176.95019287161995L233.83397727272728,176.96618520010088L234.10000000000002,176.941440135226L234.36602272727274,176.9639835054404L234.63204545454545,176.9614146591921L234.8980681818182,176.94741861417424L235.1640909090909,176.96004494641966L235.43011363636364,176.9601138503931L235.69613636363636,176.9535809844383L235.9621590909091,176.96587769503094L236.2281818181818,176.94674352179572L236.49420454545455,176.95608014971367L236.76022727272726,176.96786565687216L237.02625,176.94265121560602L237.29227272727272,176.95335362837068L237.55829545454543,176.94970704516163L237.8243181818182,176.96950298373122L238.0903409090909,176.95610528843827L238.35636363636365,176.94892231858103L238.62238636363637,176.96858995564253L238.8884090909091,176.95731020433595L239.15443181818182,176.96511198132794L239.42045454545456,176.94826041373017L239.68647727272727,176.96063413957017L239.9525,176.95404523520847L240.21852272727273,176.95919348373718L240.48454545454544,176.95962194101594L240.75056818181818,176.9489953522425L241.0165909090909,176.96783200549544L241.28261363636364,176.9505678103742L241.54863636363635,176.96475132262276L241.81465909090912,176.96049543871777L242.08068181818183,176.96084632482962L242.34670454545454,176.9552334692271L242.61272727272728,176.96111485757865L242.87875,176.96038375684293L243.14477272727274,176.9551783838251L243.41079545454545,176.96289415212232L243.6768181818182,176.95843477590824L243.9428409090909,176.9684417419121L244.20886363636365,176.95014386055118L244.47488636363636,176.95946286217077L244.74090909090907,176.96159673035436L245.0069318181818,176.95837035792647L245.27295454545452,176.95590425161936L245.53897727272727,176.95741224454832L245.80499999999998,176.9691683158744L246.07102272727275,176.97233654856245L246.33704545454546,176.95144654531032L246.6030681818182,176.95749619913113L246.86909090909091,176.95547070306202L247.13511363636366,176.95992330092122L247.40113636363637,176.96885345291957L247.66715909090908,176.94674533765647L247.93318181818182,176.97843269356963L248.19920454545453,176.95791750887292L248.46522727272728,176.95632684920565L248.73125,176.97398712519498L248.99727272727273,176.9528584779182L249.26329545454544,176.9613308205153L249.52931818181818,176.95753780509403L249.7953409090909,176.96759866739012L250.0613636363636,176.97209230670705L250.32738636363638,176.95220096461708L250.5934090909091,176.96205537900096L250.85943181818183,176.97099249609164L251.12545454545455,176.9707068650605L251.3914772727273,176.94199528206082L251.6575,176.96057580880006L251.92352272727274,176.96322860533837L252.18954545454545,176.96463864266843L252.45556818181817,176.9561637651641L252.7215909090909,176.96446972039848L252.98761363636362,176.969907111481L253.25363636363636,176.9629826828459L253.51965909090907,176.9655529800657L253.7856818181818,176.9612178078678L254.05170454545453,176.9586518635624L254.3177272727273,176.9642180691444L254.58375,176.96894412361144L254.84977272727272,176.96273473414476L255.11579545454546,176.97466739256197L255.38181818181818,176.9521946455934L255.64784090909092,176.96977155082277L255.91386363636363,176.96786909112416L256.1798863636364,176.9530037081422L256.4459090909091,176.97281930136523L256.7119318181818,176.96362915073405L256.97795454545457,176.95543183591508L257.2439772727273,176.96896616721642L257.51,176.9544813852117L257.77602272727273,176.97255559159385L258.0420454545455,176.96031046131975L258.30806818181816,176.96801942121238L258.5740909090909,176.96746521021123L258.84011363636364,176.96846197609557L259.1061363636364,176.95615675929002L259.37215909090907,176.97296905621624L259.6381818181818,176.96811395758414L259.90420454545455,176.97239854754298L260.17022727272723,176.9543460069981L260.43625000000003,176.9674958995456L260.7022727272727,176.96779064207658L260.96829545454545,176.96158435846155L261.2343181818182,176.96449322141416L261.50034090909094,176.97085108218016L261.7663636363636,176.96255384779943L262.03238636363636,176.97052359620284L262.2984090909091,176.96874454634963L262.5644318181818,176.9586725077097L262.83045454545453,176.97627452590677L263.09647727272727,176.97003580792807L263.3625,176.9507013598486L263.6285227272727,176.96452442159352L263.89454545454544,176.96351234753092L264.1605681818182,176.97400881034991L264.4265909090909,176.9677369625715L264.69261363636366,176.96430912833603L264.95863636363634,176.97015674940485L265.2246590909091,176.95772572307033L265.4906818181818,176.97703327451745L265.75670454545457,176.96764394585625" style="fill: none;" fill="none"></path></g></g></g></g></g></g><g transform="translate(37, 177)" clip-path="url(#clip_1)"><clipPath id="clip_1"><rect width="292" height="22"></rect></clipPath><g><g><line x1="0" y1="0" x2="0" y2="5" style="visibility: inherit;" fill="rgb(0, 0, 0)" stroke="rgb(204, 204, 204)" stroke-width="1px"></line><line x1="26.602272727272727" y1="0" x2="26.602272727272727" y2="5" style="visibility: inherit;" fill="rgb(0, 0, 0)" stroke="rgb(204, 204, 204)" stroke-width="1px"></line><line x1="53.20454545454545" y1="0" x2="53.20454545454545" y2="5" style="visibility: inherit;" fill="rgb(0, 0, 0)" stroke="rgb(204, 204, 204)" stroke-width="1px"></line><line x1="79.80681818181817" y1="0" x2="79.80681818181817" y2="5" style="visibility: inherit;" fill="rgb(0, 0, 0)" stroke="rgb(204, 204, 204)" stroke-width="1px"></line><line x1="106.4090909090909" y1="0" x2="106.4090909090909" y2="5" style="visibility: inherit;" fill="rgb(0, 0, 0)" stroke="rgb(204, 204, 204)" stroke-width="1px"></line><line x1="133.01136363636363" y1="0" x2="133.01136363636363" y2="5" style="visibility: inherit;" fill="rgb(0, 0, 0)" stroke="rgb(204, 204, 204)" stroke-width="1px"></line><line x1="159.61363636363635" y1="0" x2="159.61363636363635" y2="5" style="visibility: inherit;" fill="rgb(0, 0, 0)" stroke="rgb(204, 204, 204)" stroke-width="1px"></line><line x1="186.2159090909091" y1="0" x2="186.2159090909091" y2="5" style="visibility: inherit;" fill="rgb(0, 0, 0)" stroke="rgb(204, 204, 204)" stroke-width="1px"></line><line x1="212.8181818181818" y1="0" x2="212.8181818181818" y2="5" style="visibility: inherit;" fill="rgb(0, 0, 0)" stroke="rgb(204, 204, 204)" stroke-width="1px"></line><line x1="239.42045454545456" y1="0" x2="239.42045454545456" y2="5" style="visibility: inherit;" fill="rgb(0, 0, 0)" stroke="rgb(204, 204, 204)" stroke-width="1px"></line><line x1="266.02272727272725" y1="0" x2="266.02272727272725" y2="5" style="visibility: inherit;" fill="rgb(0, 0, 0)" stroke="rgb(204, 204, 204)" stroke-width="1px"></line><line x1="292.625" y1="0" x2="292.625" y2="5" style="visibility: inherit;" fill="rgb(0, 0, 0)" stroke="rgb(204, 204, 204)" stroke-width="1px"></line></g><g transform="translate(0, 8)"><text x="0" y="0" dx="0em" dy="0.95em" style="text-anchor: middle; visibility: hidden; font-family: Roboto, sans-serif; font-size: 12px; font-weight: 200;" fill="rgb(50, 49, 63)" stroke="none" stroke-width="1px">-100</text><text x="26.602272727272727" y="0" dx="0em" dy="0.95em" style="text-anchor: middle; visibility: inherit; font-family: Roboto, sans-serif; font-size: 12px; font-weight: 200;" fill="rgb(50, 49, 63)" stroke="none" stroke-width="1px">0</text><text x="53.20454545454545" y="0" dx="0em" dy="0.95em" style="text-anchor: middle; visibility: inherit; font-family: Roboto, sans-serif; font-size: 12px; font-weight: 200;" fill="rgb(50, 49, 63)" stroke="none" stroke-width="1px">100</text><text x="79.80681818181817" y="0" dx="0em" dy="0.95em" style="text-anchor: middle; visibility: inherit; font-family: Roboto, sans-serif; font-size: 12px; font-weight: 200;" fill="rgb(50, 49, 63)" stroke="none" stroke-width="1px">200</text><text x="106.4090909090909" y="0" dx="0em" dy="0.95em" style="text-anchor: middle; visibility: inherit; font-family: Roboto, sans-serif; font-size: 12px; font-weight: 200;" fill="rgb(50, 49, 63)" stroke="none" stroke-width="1px">300</text><text x="133.01136363636363" y="0" dx="0em" dy="0.95em" style="text-anchor: middle; visibility: inherit; font-family: Roboto, sans-serif; font-size: 12px; font-weight: 200;" fill="rgb(50, 49, 63)" stroke="none" stroke-width="1px">400</text><text x="159.61363636363635" y="0" dx="0em" dy="0.95em" style="text-anchor: middle; visibility: inherit; font-family: Roboto, sans-serif; font-size: 12px; font-weight: 200;" fill="rgb(50, 49, 63)" stroke="none" stroke-width="1px">500</text><text x="186.2159090909091" y="0" dx="0em" dy="0.95em" style="text-anchor: middle; visibility: inherit; font-family: Roboto, sans-serif; font-size: 12px; font-weight: 200;" fill="rgb(50, 49, 63)" stroke="none" stroke-width="1px">600</text><text x="212.8181818181818" y="0" dx="0em" dy="0.95em" style="text-anchor: middle; visibility: inherit; font-family: Roboto, sans-serif; font-size: 12px; font-weight: 200;" fill="rgb(50, 49, 63)" stroke="none" stroke-width="1px">700</text><text x="239.42045454545456" y="0" dx="0em" dy="0.95em" style="text-anchor: middle; visibility: inherit; font-family: Roboto, sans-serif; font-size: 12px; font-weight: 200;" fill="rgb(50, 49, 63)" stroke="none" stroke-width="1px">800</text><text x="266.02272727272725" y="0" dx="0em" dy="0.95em" style="text-anchor: middle; visibility: inherit; font-family: Roboto, sans-serif; font-size: 12px; font-weight: 200;" fill="rgb(50, 49, 63)" stroke="none" stroke-width="1px">900</text><text x="292.625" y="0" dx="0em" dy="0.95em" style="text-anchor: middle; visibility: hidden; font-family: Roboto, sans-serif; font-size: 12px; font-weight: 200;" fill="rgb(50, 49, 63)" stroke="none" stroke-width="1px">1k</text></g><line x1="0" y1="0" x2="292.625" y2="0" fill="rgb(0, 0, 0)" stroke="rgb(204, 204, 204)" stroke-width="1px"></line></g></g></g></g></svg>